<svg version="1.1" id="Layer_1" xmlns="http://www.w3.org/2000/svg" xmlns:xlink="http://www.w3.org/1999/xlink" x="0px" y="0px"
	 width="100%" viewBox="0 0 1024 512" enable-background="new 0 0 1024 512" xml:space="preserve">
<path fill="#000000" opacity="1.000000" stroke="none" 
	d="
M474.437500,513.000000 
	C477.146057,496.819183 481.380554,481.137695 494.629974,469.806732 
	C500.745453,464.576782 508.371368,462.556671 516.114075,460.395844 
	C515.238159,455.194550 514.569275,450.146057 513.486450,445.187958 
	C512.813843,442.108063 509.964081,443.195190 508.025299,443.301605 
	C497.307312,443.889923 487.092957,442.030670 477.569641,437.075378 
	C453.937256,424.778656 444.140564,397.930481 453.939270,372.650879 
	C457.069946,364.574005 457.035522,364.636810 449.670441,360.595734 
	C447.236237,359.260101 442.737183,358.352264 444.593750,354.632507 
	C446.648346,350.515808 450.152771,353.719635 452.743652,355.081940 
	C460.706757,359.268890 460.496918,359.178253 467.163910,352.614716 
	C470.053467,349.770020 470.571136,347.487579 468.492096,344.004700 
	C466.454865,340.591797 464.988800,336.830048 463.372681,333.176910 
	C462.521332,331.252563 462.099609,329.038025 464.385529,327.925751 
	C467.013275,326.647125 468.308167,328.603912 469.281189,330.721893 
	C471.353577,335.232666 473.434845,339.739349 475.697815,344.649902 
	C481.801208,341.412506 487.485382,338.347931 493.577728,336.186737 
	C496.068481,335.303131 496.007080,333.183838 495.510559,331.181671 
	C494.951630,328.927887 494.097107,326.745270 493.330780,324.545746 
	C492.665131,322.635254 492.514832,320.773407 494.770508,319.966949 
	C496.821747,319.233551 498.434814,320.321442 499.198486,322.203796 
	C500.321411,324.971832 501.472870,327.786530 502.068848,330.692810 
	C502.606415,333.314178 503.942474,333.949707 506.263031,333.646545 
	C516.253235,332.341522 525.854187,333.979431 535.103943,337.736267 
	C538.161499,338.978119 539.559509,337.666931 540.220337,335.043457 
	C540.703491,333.124969 540.691284,331.087280 541.036072,329.126709 
	C541.344543,327.372498 542.163574,325.844543 544.243164,325.974243 
	C546.221924,326.097595 547.065735,327.516144 547.244019,329.363312 
	C547.554749,332.582703 547.197815,335.785828 545.690491,338.606323 
	C544.309814,341.189850 544.860107,342.627563 547.044312,344.456726 
	C572.207581,365.529694 573.682190,399.801666 550.758850,423.250397 
	C543.128723,431.055359 534.402649,436.881958 524.035217,440.135010 
	C520.428040,441.266785 518.390015,442.747314 520.121582,446.789795 
	C520.373291,447.377380 520.271179,448.108307 520.387939,448.763062 
	C522.131714,458.538788 522.474609,458.785950 532.210938,460.133606 
	C551.476685,462.800293 567.528076,471.675812 580.531799,485.957489 
	C583.523743,489.243469 585.914001,489.497894 589.414062,487.205353 
	C605.139465,476.905151 615.073975,462.147156 621.179504,444.825226 
	C626.437439,429.907990 630.523010,414.616669 629.701416,398.496857 
	C629.400208,392.587952 628.420044,387.142456 624.062927,382.481506 
	C621.183899,379.401733 619.262268,375.601746 618.462830,371.041046 
	C616.467957,359.661530 629.244934,351.353119 639.625366,353.937073 
	C642.517578,354.657043 644.592041,356.598724 645.649658,359.461456 
	C648.451416,367.045532 648.173157,374.161407 642.335083,380.368866 
	C641.277710,381.493042 640.663574,382.549774 640.682251,384.283630 
	C641.008545,414.530060 632.965454,442.444397 616.788452,467.961365 
	C610.218079,478.325165 602.255188,487.466370 591.343567,493.567688 
	C588.890381,494.939453 588.643127,496.395630 590.037109,498.793030 
	C592.460266,502.960510 594.762390,507.236877 595.069763,512.604980 
	C593.285645,513.000000 591.571289,513.000000 589.320068,512.643066 
	C588.390259,511.018463 588.092529,509.711639 587.590210,508.488770 
	C578.245178,485.737488 550.723511,466.695007 526.293335,466.747559 
	C510.136871,466.782288 496.448853,472.216187 488.946411,487.849915 
	C485.118866,495.825836 482.375122,504.214325 481.000000,513.000000 
	C478.958344,513.000000 476.916656,513.000000 474.437500,513.000000 
M549.211426,414.702332 
	C560.810364,399.144440 563.653870,377.233429 555.421326,366.453888 
	C555.094849,366.839020 554.775818,367.210022 554.462463,367.585754 
	C550.949219,371.798584 553.591125,376.566681 553.326721,381.058228 
	C552.832825,389.446655 547.596252,396.807495 540.296936,398.759949 
	C533.656006,400.536316 525.988831,396.618530 521.674194,389.211121 
	C519.618042,385.681061 518.477173,381.832001 518.670654,377.769958 
	C518.851074,373.981293 517.258850,372.810150 513.642944,372.972595 
	C508.153351,373.219238 503.234192,375.024384 498.517212,377.627106 
	C496.303070,378.848816 495.426514,380.267761 496.912231,382.854248 
	C499.217804,386.868073 499.667908,391.364258 499.278290,395.927124 
	C498.611542,403.734833 492.937653,410.368378 485.648560,411.933594 
	C479.358002,413.284454 471.890961,409.428772 468.189301,402.833466 
	C466.970184,400.661285 465.901825,398.433014 465.527527,395.883820 
	C465.060883,392.705200 464.535919,389.352875 459.871704,390.342529 
	C455.454010,391.279816 457.079224,394.754059 457.334839,397.185547 
	C458.918030,412.245972 466.779266,423.325623 479.902100,430.474731 
	C502.522278,442.797699 530.627747,436.452850 549.211426,414.702332 
M463.256012,383.697845 
	C465.640442,384.005615 466.727753,382.569489 467.879700,380.723419 
	C472.565460,373.214203 479.599731,370.763000 487.569611,373.997009 
	C489.859314,374.926147 491.419403,374.891205 493.441071,373.407562 
	C500.507599,368.221710 508.567902,365.845428 517.299072,365.873383 
	C519.680786,365.880981 521.261597,365.050110 522.834595,363.244141 
	C529.454224,355.644287 538.063660,355.087189 545.722168,361.491852 
	C546.691223,362.302246 547.187500,363.784302 548.756165,363.817322 
	C552.115479,360.544128 551.503296,357.815369 548.260010,354.655518 
	C534.960388,341.698029 519.003052,337.676239 501.329376,341.493042 
	C480.470795,345.997681 465.924866,358.329285 458.938629,378.924774 
	C457.742249,382.451721 458.690369,384.030853 463.256012,383.697845 
M528.744507,387.665222 
	C534.924438,394.044220 540.705383,393.944183 544.609192,387.390747 
	C548.446716,380.948547 546.760681,371.279663 540.976257,366.557129 
	C535.724976,362.269867 529.392334,363.776001 526.721375,369.987396 
	C524.154663,375.956299 525.022766,381.627228 528.744507,387.665222 
M490.447083,385.197968 
	C488.133392,381.343323 484.818695,378.938843 480.243683,379.522888 
	C476.549683,379.994476 473.718445,382.479523 472.683868,385.971466 
	C471.400482,390.303223 471.453461,394.795288 473.814728,398.973877 
	C476.139343,403.087646 479.415527,405.520355 484.321320,404.911346 
	C488.977631,404.333282 490.831207,400.929718 492.099243,396.920105 
	C493.338287,393.002258 492.464233,389.411438 490.447083,385.197968 
M639.539307,363.536377 
	C635.912415,361.712372 635.101318,364.725281 634.553528,366.907074 
	C633.848999,369.713470 633.096436,372.986847 636.031677,375.140106 
	C637.378662,376.128265 638.563965,374.854370 639.232849,373.676544 
	C640.963257,370.629089 641.310486,367.427094 639.539307,363.536377 
z"/>
<path fill="#000000" opacity="1.000000" stroke="none" 
	d="
M478.764587,278.004883 
	C478.767487,273.841125 478.781525,270.176056 478.772552,266.511047 
	C478.765594,263.657318 479.415466,261.140961 482.445099,260.091461 
	C485.438904,259.054321 487.639984,260.523987 489.398285,262.736877 
	C495.304352,270.169922 501.143890,277.655823 507.033966,285.101624 
	C507.940491,286.247589 508.978882,287.289307 510.854248,289.380615 
	C510.854248,282.665985 510.846283,277.096069 510.858459,271.526215 
	C510.862823,269.527893 510.805695,267.520538 510.970825,265.533447 
	C511.254761,262.117859 512.920105,259.789001 516.609253,259.833527 
	C520.327332,259.878357 521.821472,262.361633 522.110901,265.710480 
	C522.268250,267.530609 522.191040,269.372406 522.191650,271.204407 
	C522.194885,281.866394 522.200256,292.528412 522.180176,303.190369 
	C522.174988,305.917542 522.025635,308.789032 519.042480,309.960968 
	C515.780273,311.242523 513.244873,309.663147 511.214539,307.113007 
	C507.791077,302.813080 504.355530,298.522705 500.950775,294.208008 
	C497.657745,290.035004 494.397156,285.836426 490.061554,281.778137 
	C490.061554,285.963959 490.067871,290.149811 490.059418,294.335632 
	C490.053345,297.334198 490.102814,300.335480 489.991516,303.330505 
	C489.851318,307.102509 489.039978,310.496490 484.188049,310.337189 
	C479.373962,310.179138 478.771545,306.786743 478.774139,302.992920 
	C478.779755,294.829803 478.769531,286.666687 478.764587,278.004883 
z"/>
<path fill="#000000" opacity="1.000000" stroke="none" 
	d="
M291.575714,286.083954 
	C291.573517,279.451385 291.636505,273.301392 291.547241,267.153595 
	C291.484558,262.836823 293.345123,260.518982 297.780975,260.671478 
	C305.405396,260.933624 313.117249,259.640564 320.642242,261.633026 
	C331.315491,264.459045 337.160278,272.268829 337.323944,283.615173 
	C337.519531,297.175751 332.309662,305.300720 321.195129,308.617065 
	C313.220581,310.996521 305.017487,310.391632 296.902069,309.983307 
	C292.270081,309.750275 291.170197,306.099426 291.255585,302.038269 
	C291.364014,296.881348 291.469238,291.724396 291.575714,286.083954 
M320.549286,297.149414 
	C325.156158,292.100037 326.476593,282.709198 323.423309,276.709595 
	C320.911621,271.774170 313.848022,269.214966 306.263306,270.285065 
	C304.195129,270.576904 303.306427,271.475891 303.308289,273.469879 
	C303.315674,281.287415 303.308228,289.104950 303.317474,296.922485 
	C303.319916,298.992706 304.497772,299.951569 306.455566,299.970612 
	C311.093048,300.015778 315.819061,300.501648 320.549286,297.149414 
z"/>
<path fill="#000000" opacity="1.000000" stroke="none" 
	d="
M736.042725,288.998444 
	C736.037842,293.664215 736.089905,297.831451 736.011780,301.996307 
	C735.953003,305.130493 736.351013,308.720428 732.553955,310.054443 
	C728.768555,311.384399 726.342529,309.044312 724.166504,306.223389 
	C718.365479,298.703369 712.461731,291.262573 706.582886,283.802856 
	C705.879456,282.910248 705.077454,282.095337 703.360168,280.163177 
	C703.360168,288.980652 703.357056,296.548492 703.361877,304.116364 
	C703.363525,306.744812 702.997742,309.177277 700.032410,310.141663 
	C696.380615,311.329315 692.941040,309.421356 692.871277,305.481934 
	C692.632263,291.988770 692.735962,278.489014 692.774658,264.991913 
	C692.781494,262.605743 694.031189,260.843628 696.349731,260.090912 
	C699.357910,259.114288 701.544128,260.611786 703.293823,262.813324 
	C708.787537,269.725983 714.208191,276.696655 719.673035,283.632355 
	C721.002197,285.319214 722.392273,286.958038 724.730530,289.809357 
	C724.730530,282.911774 724.729065,277.365387 724.731323,271.818970 
	C724.732056,269.985870 724.758057,268.152649 724.744873,266.319702 
	C724.718445,262.635223 726.230408,260.076141 730.135132,259.869171 
	C734.263794,259.650299 735.620300,262.591583 735.864868,266.008850 
	C736.137939,269.823853 736.012329,273.668274 736.034058,277.500061 
	C736.054810,281.166229 736.041931,284.832611 736.042725,288.998444 
z"/>
<path fill="#000000" opacity="1.000000" stroke="none" 
	d="
M642.273132,293.982727 
	C642.244873,297.810028 642.369507,301.151337 642.145752,304.469147 
	C641.903015,308.067993 640.157654,310.403656 636.153625,310.355255 
	C632.033203,310.305511 630.704407,307.811676 630.605896,304.181305 
	C630.596863,303.848267 630.625549,303.510376 630.579590,303.182770 
	C629.996033,299.021790 632.741760,293.112762 628.707092,291.045197 
	C623.688354,288.473389 617.295410,290.089142 611.497498,290.302216 
	C609.263000,290.384338 609.181519,292.339417 609.138367,294.045288 
	C609.050049,297.540161 609.189514,301.053253 608.876343,304.526489 
	C608.558777,308.048981 606.843262,310.454742 602.801208,310.364258 
	C598.733826,310.273163 597.087830,307.745941 597.050110,304.226868 
	C596.914612,291.569061 596.910400,278.908142 597.041809,266.250336 
	C597.077820,262.782257 598.709534,260.008850 602.641602,259.820007 
	C606.872009,259.616852 608.565002,262.411346 608.904541,266.101715 
	C609.193665,269.244049 609.184326,272.424957 609.122620,275.585175 
	C609.065186,278.525879 610.250977,279.836639 613.270081,279.750885 
	C617.764160,279.623230 622.265503,279.660614 626.761902,279.736053 
	C629.550049,279.782837 630.662109,278.599976 630.471619,275.793915 
	C630.303040,273.310669 630.506592,270.803833 630.500488,268.307526 
	C630.485901,262.300903 632.254395,259.721649 636.384399,259.785278 
	C640.375305,259.846771 642.233154,262.541901 642.259827,268.498749 
	C642.297058,276.827820 642.271362,285.157135 642.273132,293.982727 
z"/>
<path fill="#000000" opacity="1.000000" stroke="none" 
	d="
M463.853333,308.389404 
	C461.492218,299.753174 455.577728,298.231171 448.107330,299.313721 
	C446.477753,299.549866 444.760498,299.520325 443.124268,299.304749 
	C439.011627,298.762878 436.381531,300.258606 435.398529,304.390991 
	C435.285156,304.867584 435.016510,305.311615 434.792114,305.756775 
	C432.648315,310.009918 429.215515,311.692291 426.042053,309.770813 
	C422.346588,307.533234 423.654907,304.359558 424.988342,301.417267 
	C429.863373,290.660065 434.804688,279.932861 439.735107,269.200836 
	C440.568268,267.387390 441.338715,265.526062 442.365784,263.824280 
	C445.644135,258.392212 451.857635,258.219818 454.597961,263.875275 
	C460.833954,276.745087 466.625824,289.830780 472.545044,302.852875 
	C473.551056,305.066101 474.035431,307.604095 471.825836,309.262238 
	C469.303558,311.155060 466.534637,310.877594 463.853333,308.389404 
M443.652771,284.864136 
	C443.296234,286.383850 441.688751,287.654663 442.805786,289.682037 
	C446.604645,289.819489 450.500732,290.694397 454.775482,288.857452 
	C452.811768,284.090759 451.339172,279.446198 448.233582,274.543365 
	C446.612976,278.214142 445.288727,281.213715 443.652771,284.864136 
z"/>
<path fill="#000000" opacity="1.000000" stroke="none" 
	d="
M650.833008,291.988647 
	C650.836914,283.671112 650.751831,275.849854 650.876160,268.031921 
	C650.967590,262.281769 652.654907,260.695465 658.431213,260.646729 
	C665.584961,260.586395 672.740234,260.693115 679.893738,260.619446 
	C683.169373,260.585724 685.630371,261.543213 685.630127,265.220642 
	C685.629883,268.754547 683.107361,269.457306 680.128662,269.448425 
	C675.978699,269.436005 671.828430,269.554169 667.678284,269.554657 
	C664.413452,269.555054 661.961914,269.836700 662.136414,274.364960 
	C662.288208,278.303375 663.182495,280.246307 667.479675,279.941010 
	C671.119141,279.682495 674.800537,279.822815 678.453186,279.998505 
	C681.486511,280.144348 684.204834,281.093964 684.181458,284.835358 
	C684.157837,288.613007 681.582458,289.412598 678.396301,289.381805 
	C674.403687,289.343262 670.406982,289.493958 666.418030,289.369781 
	C661.597046,289.219666 662.366272,292.607269 662.261780,295.547699 
	C662.159058,298.437469 662.282349,300.890411 666.314880,300.721954 
	C670.964722,300.527710 675.630066,300.729004 680.288391,300.705902 
	C683.417908,300.690399 685.556702,301.970459 685.651245,305.257507 
	C685.747009,308.589478 683.479797,310.050385 680.496643,310.098907 
	C672.845886,310.223450 665.190186,310.235870 657.539734,310.103394 
	C653.371887,310.031219 651.130249,307.568512 650.938293,303.464600 
	C650.767456,299.811523 650.858459,296.146240 650.833008,291.988647 
z"/>
<path fill="#000000" opacity="1.000000" stroke="none" 
	d="
M578.164917,310.350098 
	C567.939026,311.369537 558.926270,309.755981 553.129333,300.900299 
	C546.986877,291.516632 546.730103,281.272919 551.800598,271.479309 
	C559.023682,257.528137 578.260193,257.266449 587.688965,263.257080 
	C590.490356,265.036957 591.182251,267.797821 589.626221,270.640167 
	C588.229492,273.191467 585.848389,273.623169 583.166382,272.359528 
	C581.818359,271.724365 580.412903,271.158112 578.976501,270.772644 
	C572.066772,268.918152 565.655640,271.155273 562.798523,276.339966 
	C559.507812,282.311676 560.794800,293.582550 565.388489,297.332916 
	C569.841248,300.968262 575.007019,300.360077 580.139526,299.241028 
	C581.263062,298.996063 582.289246,298.326019 583.407532,298.031525 
	C585.962158,297.358643 588.588562,297.213684 589.892761,300.039825 
	C591.270752,303.025696 590.239990,305.570038 587.478577,307.321503 
	C584.767029,309.041321 581.759827,309.949554 578.164917,310.350098 
z"/>
<path fill="#000000" opacity="1.000000" stroke="none" 
	d="
M376.597382,260.047974 
	C380.949249,262.304657 380.750336,265.234009 378.519043,268.483704 
	C375.221710,273.286072 372.033417,278.175385 368.499725,282.799164 
	C366.034943,286.024292 364.905365,289.375458 365.184875,293.422577 
	C365.425110,296.900757 365.318787,300.415649 365.161102,303.905060 
	C364.993561,307.612427 363.633759,310.382935 359.238342,310.365234 
	C355.214203,310.349030 353.653992,308.023712 353.367065,304.390106 
	C353.301575,303.560730 353.038330,302.699493 353.178986,301.908508 
	C355.166687,290.728851 350.343353,281.940918 343.488190,273.808197 
	C342.100281,272.161682 340.921936,270.318542 339.798645,268.473724 
	C338.150635,265.767273 337.936127,262.995941 340.672791,260.893951 
	C343.358002,258.831482 346.288452,259.464569 348.309021,261.794342 
	C351.129913,265.046875 353.435638,268.742950 356.015564,272.209259 
	C356.981873,273.507507 357.572540,275.179413 359.506622,275.925018 
	C363.105194,272.491669 365.326355,267.967743 368.339294,264.055756 
	C370.356842,261.436188 372.501953,259.231140 376.597382,260.047974 
z"/>
<path fill="#000000" opacity="1.000000" stroke="none" 
	d="
M388.360779,294.414642 
	C388.371552,284.995392 388.470795,276.023651 388.462708,267.051971 
	C388.459259,263.208344 389.565125,260.518738 394.005371,260.460999 
	C398.311005,260.405029 400.010773,263.037537 400.108887,266.770081 
	C400.301056,274.081329 400.199799,281.400360 400.217163,288.716156 
	C400.221893,290.711517 400.383301,292.723969 400.180664,294.698608 
	C399.768066,298.718903 401.585449,299.989075 405.406219,299.770630 
	C409.381989,299.543304 413.392059,299.611542 417.370667,299.838867 
	C420.406464,300.012329 423.050232,301.219086 423.023804,304.850952 
	C422.996399,308.612732 420.505951,310.101044 417.101807,310.138977 
	C409.786560,310.220459 402.466644,310.297424 395.154846,310.119995 
	C390.256775,310.001160 388.379303,307.772186 388.378815,302.833801 
	C388.378540,300.176575 388.396210,297.519379 388.360779,294.414642 
z"/>
<path fill="#000000" opacity="1.000000" stroke="none" 
	d="
M27.835760,30.040878 
	C23.406092,30.119982 20.521481,29.275093 22.869246,24.294128 
	C23.072510,23.862888 23.223446,23.334679 23.180193,22.871935 
	C22.982159,20.753225 20.191069,18.216118 23.030142,16.669289 
	C25.359024,15.400431 28.850691,15.085409 31.187561,16.343826 
	C36.602631,19.259869 41.352173,16.775503 46.638664,15.646753 
	C47.488724,15.905883 47.858242,16.894703 47.814919,17.873093 
	C47.483406,25.359818 41.245651,30.585909 33.633503,29.562862 
	C31.722727,29.306061 30.032063,29.718203 27.835760,30.040878 
z"/>
<path fill="#000000" opacity="1.000000" stroke="none" 
	d="
M441.108215,12.668380 
	C451.572784,12.671292 461.553314,12.667595 471.533875,12.681945 
	C478.765350,12.692343 483.383179,16.614529 483.295593,22.642008 
	C483.210388,28.502800 478.719604,32.331516 471.794708,32.348087 
	C460.649811,32.374760 449.504730,32.366531 438.359772,32.339859 
	C430.403046,32.320816 426.713013,29.248909 426.662140,22.684660 
	C426.610413,16.011189 430.525024,12.734358 438.628052,12.670037 
	C439.293396,12.664756 439.958832,12.669443 441.108215,12.668380 
M456.499664,15.318984 
	C450.025696,15.326196 443.551422,15.299250 437.077820,15.352257 
	C432.526031,15.389527 429.275055,18.358915 429.143250,22.468267 
	C429.012299,26.552771 432.149719,29.632843 436.941437,29.673811 
	C448.889862,29.775961 460.840210,29.774378 472.788757,29.682364 
	C477.301086,29.647614 480.690857,26.276514 480.566284,22.362734 
	C480.444458,18.534908 477.253845,15.490556 472.936523,15.379459 
	C467.793549,15.247119 462.645142,15.326791 456.499664,15.318984 
z"/>
<path fill="#000000" opacity="1.000000" stroke="none" 
	d="
M590.644226,12.645147 
	C598.191284,14.052170 600.868896,17.298948 600.317078,23.821093 
	C599.858521,29.240778 596.036560,32.294331 589.408630,32.328308 
	C578.419312,32.384647 567.429321,32.384533 556.440002,32.330513 
	C549.655212,32.297161 545.790771,28.748341 545.657043,22.623993 
	C545.523926,16.533546 549.321289,12.796299 556.219360,12.709613 
	C567.540161,12.567348 578.863892,12.653383 590.644226,12.645147 
M595.791321,17.483883 
	C593.886047,15.502958 591.462219,15.315022 588.896240,15.328064 
	C577.944336,15.383726 566.992065,15.378064 556.039917,15.365898 
	C551.727356,15.361108 548.489014,18.123104 548.266357,22.085081 
	C548.030334,26.285276 551.078247,29.596237 555.696289,29.648130 
	C567.158081,29.776936 578.624268,29.855701 590.084290,29.676176 
	C597.000000,29.567844 599.728699,24.181774 595.791321,17.483883 
z"/>
<path fill="#000000" opacity="1.000000" stroke="none" 
	d="
M499.522980,12.714444 
	C508.941132,12.668071 517.913269,12.631401 526.885315,12.655460 
	C533.712891,12.673770 538.216309,16.608137 538.280029,22.514746 
	C538.342468,28.307188 533.792664,32.288696 526.896851,32.333603 
	C518.589600,32.387703 510.281555,32.366737 501.974030,32.334187 
	C495.354980,32.308258 491.685852,29.791504 490.791534,24.761057 
	C489.710388,18.679350 492.223389,15.036418 499.522980,12.714444 
M517.483521,15.286345 
	C512.002991,15.303115 506.521271,15.256355 501.042267,15.356097 
	C496.382172,15.440929 493.331451,18.378586 493.269409,22.627520 
	C493.211456,26.593948 496.082458,29.572250 500.679688,29.655319 
	C509.811096,29.820314 518.949280,29.806154 528.081238,29.655523 
	C532.328552,29.585463 535.548584,26.229729 535.532104,22.461571 
	C535.515930,18.782761 532.217834,15.595243 527.939087,15.368592 
	C524.791443,15.201851 521.629456,15.305821 517.483521,15.286345 
z"/>
<path fill="#000000" opacity="1.000000" stroke="none" 
	d="
M465.810516,230.330841 
	C464.060883,225.260529 460.178802,227.415253 457.276093,227.556885 
	C454.462646,227.694168 455.438080,230.559250 455.212219,232.400360 
	C455.091064,233.387878 455.142242,234.395752 455.039398,235.386520 
	C454.928009,236.459808 454.423492,237.350906 453.260376,237.450409 
	C451.816681,237.573898 451.038605,236.617401 451.024353,235.331818 
	C450.950623,228.678299 450.944580,222.023514 450.989227,215.369690 
	C450.997375,214.157959 451.493286,213.030136 453.011017,213.025803 
	C454.495514,213.021561 454.969910,214.066116 455.105408,215.317627 
	C455.194702,216.142334 455.182861,216.978302 455.209412,217.809433 
	C455.384308,223.285370 458.232758,225.195877 463.556671,223.541229 
	C465.360443,222.980637 465.758728,221.720627 465.825226,220.130859 
	C465.894714,218.469223 465.870850,216.798828 466.039948,215.147842 
	C466.168915,213.888290 466.821045,212.910645 468.295868,213.033051 
	C469.495087,213.132568 470.059570,214.027283 470.067413,215.081116 
	C470.118011,221.902069 470.121429,228.723648 470.081299,235.544693 
	C470.074890,236.631500 469.435913,237.440765 468.239685,237.491455 
	C467.046722,237.541992 466.329651,236.757401 466.179291,235.720535 
	C465.941803,234.082550 465.943237,232.409897 465.810516,230.330841 
z"/>
<path fill="#000000" opacity="1.000000" stroke="none" 
	d="
M560.335876,231.932404 
	C560.330078,232.879578 560.370422,233.384247 560.312744,233.877487 
	C560.149597,235.273407 560.697937,237.339798 558.550354,237.374695 
	C556.434692,237.409042 556.724670,235.406937 556.681274,233.959671 
	C556.606323,231.464310 556.733398,228.956711 556.537598,226.473007 
	C556.370422,224.352081 555.506042,222.433044 552.965332,222.475388 
	C550.458862,222.517166 549.554504,224.392548 549.485413,226.547485 
	C549.394958,229.369537 549.637207,232.200806 549.620605,235.027420 
	C549.613708,236.200592 549.345947,237.476532 547.779480,237.509995 
	C546.253967,237.542587 545.817139,236.400772 545.805786,235.155029 
	C545.764771,230.661484 545.761108,226.166916 545.813904,221.673569 
	C545.832031,220.127502 546.689636,219.513000 548.303284,219.200592 
	C553.936646,218.109955 559.557617,220.765869 565.267456,218.884079 
	C567.620056,218.108719 569.802795,220.095245 570.597046,222.490875 
	C572.042603,226.850616 571.200378,231.391968 571.139587,235.860001 
	C571.127319,236.758713 570.417603,237.431412 569.503296,237.430115 
	C568.293396,237.428406 567.776917,236.543152 567.746948,235.439926 
	C567.674683,232.778061 567.743347,230.110336 567.603210,227.452988 
	C567.475403,225.028915 566.997498,222.492661 563.895752,222.505569 
	C560.755005,222.518646 560.388489,225.003693 560.359680,227.488892 
	C560.344177,228.820740 560.344238,230.152740 560.335876,231.932404 
z"/>
<path fill="#000000" opacity="1.000000" stroke="none" 
	d="
M576.666992,218.003906 
	C576.666809,212.323792 576.666809,207.142700 576.666809,201.127289 
	C580.912354,204.667084 581.123169,243.509964 576.667114,248.135193 
	C576.667114,237.394547 576.667114,227.948746 576.666992,218.003906 
z"/>
<path fill="#000000" opacity="1.000000" stroke="none" 
	d="
M524.418945,212.890472 
	C525.458191,213.309296 526.176636,214.034698 525.749451,214.482819 
	C521.187317,219.268829 523.812866,225.175995 523.106262,230.550461 
	C522.766724,233.133484 524.423889,234.742874 526.798889,236.403320 
	C522.573120,238.714203 519.335083,238.656998 515.778687,236.852020 
	C520.007568,232.297791 520.117249,219.254898 515.956299,213.867126 
	C518.458191,211.864624 521.329712,212.929443 524.418945,212.890472 
z"/>
<path fill="#000000" opacity="1.000000" stroke="none" 
	d="
M963.369507,346.981384 
	C964.238037,347.564789 964.839172,347.936737 965.188904,348.472687 
	C966.807739,350.953369 967.092163,353.482086 964.899414,355.772736 
	C963.385437,357.354340 961.256226,358.057648 959.461487,356.799500 
	C956.859863,354.975739 957.780334,351.939758 958.017761,349.395844 
	C958.305176,346.316986 960.767151,346.623047 963.369507,346.981384 
z"/>
<path fill="#000000" opacity="1.000000" stroke="none" 
	d="
M906.658813,355.046173 
	C907.761719,353.294312 906.048523,352.388397 906.049683,351.140594 
	C906.051697,348.907471 907.430908,347.810638 909.479553,347.809814 
	C911.132385,347.809143 913.235535,348.143341 912.015808,350.589630 
	C911.346741,351.931488 912.142273,352.343964 912.636353,353.085480 
	C914.202942,355.436401 912.849365,357.008331 910.910156,357.762451 
	C908.860168,358.559631 906.504028,358.751495 906.658813,355.046173 
z"/>
<path fill="#000000" opacity="1.000000" stroke="none" 
	d="
M479.798706,219.662659 
	C481.026306,219.336792 482.084229,219.518188 482.108337,220.434845 
	C482.242584,225.544785 482.231354,230.659256 482.208893,235.771912 
	C482.205048,236.646133 481.682068,237.387360 480.700287,237.409271 
	C479.493134,237.436249 478.836243,236.606110 478.856628,235.531982 
	C478.955902,230.300308 477.885803,225.019211 479.798706,219.662659 
z"/>
<path fill="#000000" opacity="1.000000" stroke="none" 
	d="
M495.286011,225.789948 
	C495.045502,227.801132 495.597992,229.609894 493.877136,230.711197 
	C492.027313,228.541473 490.713257,216.000000 492.044403,213.888092 
	C492.566315,213.059982 493.280396,212.829880 494.136719,213.047333 
	C495.363831,213.358902 495.439697,214.413239 495.433044,215.410187 
	C495.411041,218.717972 495.344635,222.025482 495.286011,225.789948 
z"/>
<path fill="#000000" opacity="1.000000" stroke="none" 
	d="
M982.006897,349.235352 
	C983.983276,349.175751 985.695679,349.271576 987.332214,349.363190 
	C988.816406,356.012360 984.151550,355.726105 979.866882,356.150116 
	C978.256042,354.375549 978.125916,351.955353 977.478760,350.133057 
	C979.039429,347.734497 980.499329,350.640900 982.006897,349.235352 
z"/>
<path fill="#000000" opacity="1.000000" stroke="none" 
	d="
M994.689880,348.184998 
	C997.597046,349.989990 997.539185,352.278931 996.570068,355.069214 
	C994.844604,355.041931 992.961243,353.736572 991.520447,355.675415 
	C989.307617,350.440704 989.832031,349.160675 994.689880,348.184998 
z"/>
<path fill="#000000" opacity="1.000000" stroke="none" 
	d="
M968.600464,353.539429 
	C968.555847,350.206635 969.826477,348.244019 973.018921,349.029633 
	C975.494629,349.638855 976.209778,351.733124 975.368774,354.110687 
	C974.293396,357.151001 971.593384,357.038574 968.600464,353.539429 
z"/>
<path fill="#000000" opacity="1.000000" stroke="none" 
	d="
M936.332092,350.714233 
	C938.435974,352.672241 938.826233,354.598145 937.124146,356.567596 
	C935.907227,357.975800 934.332947,358.228241 932.707886,357.213348 
	C931.135071,356.231140 930.481934,354.708618 931.046814,352.986908 
	C931.821228,350.626801 933.466370,349.566254 936.332092,350.714233 
z"/>
<path fill="#000000" opacity="1.000000" stroke="none" 
	d="
M916.875366,351.032532 
	C918.643005,350.213013 920.010193,350.217407 921.095276,351.241272 
	C921.779846,353.656342 919.278076,352.832733 918.765320,354.064178 
	C918.744995,355.911560 921.361633,354.249969 921.495911,356.375031 
	C920.520020,358.360901 918.811890,358.642792 916.915955,357.217438 
	C914.575623,355.457977 914.873779,353.332214 916.875366,351.032532 
z"/>
<path fill="#000000" opacity="1.000000" stroke="none" 
	d="
M893.875488,351.114807 
	C896.866394,350.601654 896.207825,354.264679 898.576294,354.481842 
	C895.589478,360.015503 894.268860,360.042816 890.731262,354.790741 
	C892.029175,353.963745 894.319824,353.850037 893.875488,351.114807 
z"/>
<path fill="#000000" opacity="1.000000" stroke="none" 
	d="
M949.090759,353.588257 
	C949.021912,355.213470 950.039673,356.573273 948.074768,358.246521 
	C945.252991,354.744293 945.944702,351.350983 947.039673,347.402710 
	C949.867004,349.151489 948.717041,351.381042 949.090759,353.588257 
z"/>
<path fill="#000000" opacity="1.000000" stroke="none" 
	d="
M533.838623,214.341019 
	C534.764709,211.728363 536.253479,211.063995 536.962463,213.645859 
	C537.669128,216.218765 537.971191,219.154373 536.233521,222.031677 
	C532.439575,220.394409 534.181702,217.217484 533.838623,214.341019 
z"/>
<path fill="#000000" opacity="1.000000" stroke="none" 
	d="
M940.649170,350.427521 
	C940.820984,348.956329 940.330078,347.618805 942.224304,346.964294 
	C944.193115,350.050354 943.081726,353.412964 943.475159,357.040802 
	C939.442749,355.871704 941.133606,352.902283 940.649170,350.427521 
z"/>
<path fill="#000000" opacity="1.000000" stroke="none" 
	d="
M492.467346,237.719757 
	C490.548706,235.764343 490.755951,234.173416 492.867493,233.180115 
	C494.328583,232.492783 495.588837,233.383545 495.871918,234.817001 
	C496.323212,237.102295 495.174530,238.216812 492.467346,237.719757 
z"/>
<path fill="#000000" opacity="1.000000" stroke="none" 
	d="
M927.662231,352.817474 
	C926.781250,354.360016 927.442749,356.182007 925.552368,357.232269 
	C923.618408,355.294373 924.546326,353.081299 925.123596,351.062988 
	C925.418518,350.031830 926.675110,349.771484 927.650574,350.181366 
	C928.988220,350.743408 928.555115,351.672516 927.662231,352.817474 
z"/>
<path fill="#000000" opacity="1.000000" stroke="none" 
	d="
M510.357300,405.545288 
	C513.347351,405.422882 515.945129,405.631042 516.010681,401.648102 
	C516.039551,399.897247 517.439392,398.575562 519.420288,398.868622 
	C521.355591,399.154907 522.191284,400.751801 522.125793,402.487793 
	C521.970520,406.602325 520.931091,410.366333 516.674805,412.215118 
	C514.262939,413.262787 512.113342,412.567566 510.339996,410.816406 
	C508.786896,409.282654 508.013519,407.547516 510.357300,405.545288 
z"/>
<path fill="#000000" opacity="1.000000" stroke="none" 
	d="
M539.691772,377.505737 
	C537.818298,379.459229 536.035583,379.865601 534.282898,378.119965 
	C533.128845,376.970551 532.908447,375.483307 533.749878,374.032104 
	C534.675293,372.436096 536.092773,371.684875 537.917358,372.327759 
	C540.311157,373.171204 540.532104,375.014832 539.691772,377.505737 
z"/>
<path fill="#000000" opacity="1.000000" stroke="none" 
	d="
M480.848511,393.646820 
	C478.579346,394.752838 476.657074,395.029999 475.354187,392.836975 
	C474.466766,391.343292 474.953308,389.937225 476.152557,388.813324 
	C477.367462,387.674713 478.877411,387.370178 480.244690,388.316010 
	C482.136505,389.624756 482.708252,391.376312 480.848511,393.646820 
z"/>
<path fill="#000000" opacity="1.000000" stroke="none" 
	d="
M444.853027,25.812033 
	C442.964569,23.876616 441.289246,25.217363 439.613037,26.036642 
	C438.321747,23.852468 438.158966,21.740301 439.351562,20.171820 
	C440.720734,18.371159 442.615021,19.837288 444.364594,20.225760 
	C447.108032,20.834909 449.928711,21.680738 452.671051,19.802340 
	C454.319031,18.673563 455.433716,20.814623 457.085052,21.040413 
	C460.761475,21.543095 464.118713,19.194031 467.841888,20.575384 
	C469.649292,21.245953 470.904205,21.853291 470.918579,23.776325 
	C470.935974,26.112150 469.132507,26.132885 467.409180,26.286549 
	C462.711884,26.705404 457.819000,25.034798 453.314423,27.689095 
	C452.285675,28.295280 451.578979,26.909815 450.658936,26.743511 
	C448.831970,26.413303 447.235870,24.493467 444.853027,25.812033 
z"/>
<path fill="#000000" opacity="1.000000" stroke="none" 
	d="
M560.127075,19.560257 
	C569.237183,21.694075 578.049622,20.595247 587.561340,20.539833 
	C588.890625,21.593149 588.017578,23.559217 587.642639,25.745764 
	C578.758423,27.038910 569.790100,25.512682 560.905823,26.418638 
	C559.449463,26.567142 558.288025,25.697874 557.946106,24.241941 
	C557.504700,22.362577 557.595947,20.558584 560.127075,19.560257 
z"/>
<path fill="#000000" opacity="1.000000" stroke="none" 
	d="
M513.747925,21.270548 
	C517.669739,20.654732 521.534241,22.551029 524.654053,19.720928 
	C526.922119,21.614817 525.791260,23.611120 525.844788,25.843081 
	C517.983887,26.148129 510.375946,26.460217 502.740082,25.668961 
	C502.154999,23.310774 503.197357,20.215286 504.318237,20.339699 
	C506.605072,20.593533 508.940491,18.535662 511.138184,20.477995 
	C511.710632,20.983932 512.652893,21.071388 513.747925,21.270548 
z"/>
</svg>